<svg width="2500" height="344" viewBox="0 0 2500 344" fill="none" xmlns="http://www.w3.org/2000/svg">
<g clip-path="url(#clip0_2:2)">
<path d="M2289.62 188.649C2296.84 155.636 2330.06 129.224 2364.72 129.224C2402.76 129.224 2435.49 152.336 2445.6 188.649H2289.62V188.649ZM2500 212.696C2500 176.857 2489.41 144.787 2463.9 118.375C2438.86 93.3765 2403.24 77.8136 2367.61 77.8136C2291.07 77.8136 2233.78 137.713 2233.78 212.227C2233.78 286.271 2293.95 343.809 2369.05 343.809C2422.5 343.809 2470.16 311.27 2490.37 263.164H2429.23C2414.79 283.914 2392.64 293.35 2367.13 293.35C2330.54 293.35 2297.8 267.882 2290.1 232.985H2498.08L2500 212.696V212.696ZM2065.29 287.881C2022.45 287.881 1987.78 253.454 1987.78 211.945C1987.78 169.03 2022.44 134.604 2066.25 134.604C2108.14 134.604 2143.27 168.565 2143.27 210.062C2143.28 252.511 2109.1 287.885 2065.29 287.885V287.881ZM2200.57 0.190903H2108.14V53.9586H2141.84V121.872C2121.62 95.9295 2089.84 80.8404 2057.11 80.8404C1984.41 80.8404 1926.64 140.735 1926.64 211.009C1926.64 280.81 1985.86 340.701 2057.59 340.701C2091.77 340.701 2122.58 327.499 2141.84 299.199V336.926H2233.8V283.159H2200.57V0.190903H2200.57ZM1897.37 184.597C1897.37 155.833 1896.89 133.66 1875.7 110.557C1856.92 90.7459 1829.49 79.4271 1801.56 79.4271C1769.8 79.4271 1740.9 93.1069 1725.5 120.928V85.0886H1633.55V138.852H1666.77V283.167H1633.55V336.93H1758.72V283.163H1725.5V210.066C1725.5 193.09 1725.5 171.395 1736.57 157.242C1747.17 143.096 1765.46 136.017 1783.28 136.017C1800.6 136.017 1817.93 142.622 1828.53 156.298C1838.64 169.974 1838.64 186.007 1838.64 201.574V283.163H1805.42V336.926H1930.59V283.163H1897.37V184.597H1897.37ZM1448.97 287.411C1407.58 287.411 1372.43 253.454 1372.43 212.415C1372.43 169.974 1406.13 134.6 1449.94 134.6C1492.31 134.6 1527.46 168.091 1527.46 209.592C1527.45 252.511 1493.27 287.407 1448.97 287.407V287.411ZM1526.49 120.928C1508.68 93.5726 1479.79 78.4835 1446.58 78.4835C1371.47 78.4835 1311.78 139.326 1311.78 212.419C1311.78 283.632 1370.03 343.531 1443.69 343.531C1477.39 343.531 1507.71 330.799 1526.49 302.97V336.926H1618.45V283.159H1586.19V138.844H1618.45V85.0886H1526.49V120.932L1526.49 120.928ZM1282.07 196.382C1282.07 166.196 1280.14 141.679 1260.89 116.214C1243.56 93.1029 1218.04 79.4271 1188.19 79.4271C1154.97 79.4271 1127.53 94.5162 1111.17 122.815V0.190903H1019.21V53.9586H1052.43V283.167H1019.21V336.93H1144.38V283.163H1111.17V206.757C1111.17 187.894 1110.68 171.857 1123.68 156.294C1134.27 143.092 1150.64 136.017 1167.97 136.017C1186.75 136.017 1204.08 143.092 1214.67 159.129C1224.78 175.166 1223.34 193.559 1223.34 211.945V283.167H1190.12V336.93H1315.29V283.159H1282.07V196.382H1282.07Z" fill="#00ADE6"/>
<path d="M1015.73 82.3477L1004.66 82.7071C973.501 85.2928 946.635 99.7529 932.445 127.999V85.0845H844.826V138.848H878.044V283.163H844.826V336.934H969.996V283.163H936.779V219.498C936.779 195.92 939.666 175.635 958.922 159.603C973.366 146.871 990.697 142.157 1009.47 141.209L1020.36 140.948H1029.34V82.3477C1029.34 82.3477 1016.07 82.3313 1015.73 82.3477V82.3477ZM632.207 188.649C639.424 155.636 672.642 129.224 707.305 129.224C745.342 129.224 778.073 152.336 788.183 188.649H632.207ZM710.197 77.8136C633.648 77.8136 576.36 137.713 576.36 212.227C576.36 286.271 636.541 343.809 711.643 343.809C765.084 343.809 812.741 311.27 832.96 263.164H771.82C757.376 283.914 735.232 293.35 709.715 293.35C673.124 293.35 640.388 267.882 632.689 232.985H840.664L842.592 212.701C842.592 176.861 832 144.791 806.483 118.379C781.447 93.3806 745.82 77.8136 710.197 77.8136V77.8136ZM542.219 0.190903H450.267V53.9586H483.485V283.171H408.145V0.190903H316.197V53.9545H349.415V283.167L349.349 336.93H575.441V283.163H542.223V0.190903H542.219ZM137.207 287.407C95.8081 287.407 60.6628 253.454 60.6628 212.423C60.6628 169.974 94.3621 134.604 138.171 134.604C180.534 134.604 215.679 168.091 215.679 209.596C215.679 252.511 181.502 287.407 137.207 287.407V287.407ZM214.715 120.928C196.902 93.5685 168.019 78.4835 134.801 78.4835C59.6988 78.4835 0.00415039 139.326 0.00415039 212.423C0.00415039 283.641 58.2569 343.535 131.913 343.535C165.613 343.535 195.942 330.803 214.715 302.974V336.934H306.672V283.167H274.414V138.848H306.668V85.0845H214.715V120.928V120.928Z" fill="white"/>
</g>
<defs>
<clipPath id="clip0_2:2">
<rect width="2500" height="344" fill="white"/>
</clipPath>
</defs>
</svg>
