<?xml version="1.0" encoding="utf-8"?>
<!-- Generator: Adobe Illustrator 23.0.1, SVG Export Plug-In . SVG Version: 6.00 Build 0)  -->
<svg version="1.1" id="Layer_1" xmlns="http://www.w3.org/2000/svg" xmlns:xlink="http://www.w3.org/1999/xlink" x="0px" y="0px"
	 viewBox="0 0 512 512" style="enable-background:new 0 0 512 512;" xml:space="preserve">
<style type="text/css">
	.st0{fill:#010101;}
</style>
<title>01</title>
<path class="st0" d="M289.7,381.5c-31.5-2.4-44.8-18.1-69.5-33.1c-11,57.8-24,113.6-54.7,151.7c-8.9,11.1-27,5.5-27.7-8.7
	c-4.6-92.1,27.1-165.1,42.8-242.2c-29.7-49.9,3.6-150.4,66.1-125.7c77,30.4-66.7,185.7,29.8,205.1
	c100.7,20.2,141.8-174.7,79.4-238.1c-90.2-91.6-262.6-2.1-241.4,129c4,24.9,24.9,36.3,22.3,61c-1.2,12-11.9,20.9-23.9,19.7
	c-2.6-0.2-5.1-1-7.5-2.1c-39.9-18.7-52.3-59.6-50.4-111.6C58.4,87,144.1,17.4,230.1,7.7C338.9-4.4,440.9,47.7,455,150
	C470.9,265.5,405.9,390.5,289.7,381.5L289.7,381.5z"/>
</svg>
